<?xml version="1.0" encoding="UTF-8"?>
<svg version="1.1" xmlns="http://www.w3.org/2000/svg" width="192" height="192">
<path d="M0 0 C2.18341574 0.00851187 4.36420341 -0.02037972 6.54736328 -0.05200195 C26.18907418 -0.14916493 47.20012874 6.5397496 62.31689453 19.44604492 C62.31689453 20.10604492 62.31689453 20.76604492 62.31689453 21.44604492 C62.87376953 21.69354492 63.43064453 21.94104492 64.00439453 22.19604492 C69.42644607 25.12688359 73.74113862 29.45718959 77.31689453 34.44604492 C77.31689453 35.10604492 77.31689453 35.76604492 77.31689453 36.44604492 C78.30689453 36.77604492 79.29689453 37.10604492 80.31689453 37.44604492 C93.58704777 53.0951612 98.88137955 74.11053967 98.76293945 94.12915039 C98.75442759 96.31256613 98.78331917 98.4933538 98.81494141 100.67651367 C98.91210439 120.31822458 92.22318985 141.32927913 79.31689453 156.44604492 C78.65689453 156.44604492 77.99689453 156.44604492 77.31689453 156.44604492 C77.06939453 157.00291992 76.82189453 157.55979492 76.56689453 158.13354492 C73.63605586 163.55559646 69.30574986 167.87028901 64.31689453 171.44604492 C63.65689453 171.44604492 62.99689453 171.44604492 62.31689453 171.44604492 C61.98689453 172.43604492 61.65689453 173.42604492 61.31689453 174.44604492 C45.66777825 187.71619816 24.65239978 193.01052994 4.63378906 192.89208984 C2.45037333 192.88357798 0.26958565 192.91246956 -1.91357422 192.9440918 C-21.55528512 193.04125478 -42.56633968 186.35234024 -57.68310547 173.44604492 C-57.68310547 172.78604492 -57.68310547 172.12604492 -57.68310547 171.44604492 C-58.23998047 171.19854492 -58.79685547 170.95104492 -59.37060547 170.69604492 C-64.79265701 167.76520625 -69.10734955 163.43490025 -72.68310547 158.44604492 C-72.68310547 157.78604492 -72.68310547 157.12604492 -72.68310547 156.44604492 C-73.67310547 156.11604492 -74.66310547 155.78604492 -75.68310547 155.44604492 C-88.9532587 139.79692864 -94.24759049 118.78155017 -94.12915039 98.76293945 C-94.12063852 96.57952372 -94.14953011 94.39873604 -94.18115234 92.21557617 C-94.27831533 72.57386527 -87.58940079 51.56281071 -74.68310547 36.44604492 C-74.02310547 36.44604492 -73.36310547 36.44604492 -72.68310547 36.44604492 C-72.43560547 35.88916992 -72.18810547 35.33229492 -71.93310547 34.75854492 C-69.0022668 29.33649338 -64.6719608 25.02180084 -59.68310547 21.44604492 C-59.02310547 21.44604492 -58.36310547 21.44604492 -57.68310547 21.44604492 C-57.18810547 19.96104492 -57.18810547 19.96104492 -56.68310547 18.44604492 C-41.03398919 5.17589169 -20.01861072 -0.11844009 0 0 Z " fill="#000000" transform="translate(93.68310546875,-0.446044921875)"/>
<path d="M0 0 C13.81875 -0.061875 27.6375 -0.12375 41.875 -0.1875 C46.22155762 -0.21481201 50.56811523 -0.24212402 55.04638672 -0.27026367 C60.39672852 -0.28381348 60.39672852 -0.28381348 62.90969849 -0.28633118 C64.64678256 -0.2909066 66.38385772 -0.3013922 68.12088013 -0.31672668 C91.76746302 -0.51485568 91.76746302 -0.51485568 101 7 C107.60960088 13.60960088 110.21884564 20.99737826 110.390625 30.3203125 C110.36807264 32.92219953 110.31656733 35.52386688 110.25 38.125 C110.1675 42.70375 110.085 47.2825 110 52 C100.43 52 90.86 52 81 52 C80.8125 40.25 80.8125 40.25 80.79223633 36.56347656 C80.74866701 30.38708117 80.74866701 30.38708117 77.63671875 25.296875 C74.19448619 23.60380654 71.5043805 22.87252394 67.7121582 22.79467773 C66.83950317 22.77449585 65.96684814 22.75431396 65.06774902 22.73352051 C64.15464966 22.71704468 63.24155029 22.70056885 62.30078125 22.68359375 C61.45849976 22.66494263 60.61621826 22.6462915 59.74841309 22.6270752 C56.60321504 22.55879659 53.457845 22.49863568 50.3125 22.4375 C43.279375 22.293125 36.24625 22.14875 29 22 C29 47.74 29 73.48 29 100 C19.43 100 9.86 100 0 100 C0 67 0 34 0 0 Z " fill="#FBFBFB" transform="translate(41,46)"/>
</svg>
